<svg width="50" height="48" viewBox="0 0 50 48" fill="none" xmlns="http://www.w3.org/2000/svg">
<path d="M24.0489 0.927049C24.3483 0.00573802 25.6517 0.00573969 25.9511 0.92705L31.0619 16.6565C31.1958 17.0686 31.5797 17.3475 32.0129 17.3475H48.5519C49.5206 17.3475 49.9234 18.5871 49.1397 19.1565L35.7594 28.8779C35.4089 29.1325 35.2622 29.5839 35.3961 29.9959L40.5069 45.7254C40.8063 46.6467 39.7518 47.4129 38.9681 46.8435L25.5878 37.1221C25.2373 36.8675 24.7627 36.8675 24.4122 37.1221L11.0319 46.8435C10.2482 47.4129 9.19372 46.6467 9.49307 45.7254L14.6039 29.9959C14.7378 29.5839 14.5911 29.1325 14.2406 28.8779L0.860313 19.1565C0.0765996 18.5871 0.479376 17.3475 1.4481 17.3475H17.9871C18.4203 17.3475 18.8042 17.0686 18.9381 16.6565L24.0489 0.927049Z" fill="#2E3C8A"/>
</svg>
