<svg width="20" height="20" viewBox="0 0 20 20" fill="none" xmlns="http://www.w3.org/2000/svg">
<g clip-path="url(#clip0_1031_280)">
<path d="M20 2.22222C20 1.63285 19.7659 1.06762 19.3491 0.650873C18.9324 0.234125 18.3671 0 17.7778 0H2.22222C1.63285 0 1.06762 0.234125 0.650874 0.650873C0.234126 1.06762 0 1.63285 0 2.22222V17.7778C0 18.3671 0.234126 18.9324 0.650874 19.3491C1.06762 19.7659 1.63285 20 2.22222 20H17.7778C18.3671 20 18.9324 19.7659 19.3491 19.3491C19.7659 18.9324 20 18.3671 20 17.7778V2.22222Z" fill="#2E3C8A"/>
<path d="M16.1111 15.5557L10 3.33344L3.88892 15.5557H16.1111Z" fill="white"/>
</g>
<defs>
<clipPath id="clip0_1031_280">
<rect width="20" height="20" fill="white" transform="matrix(1 0 0 -1 0 20)"/>
</clipPath>
</defs>
</svg>
