<svg width="20" height="20" viewBox="0 0 20 20" fill="none" xmlns="http://www.w3.org/2000/svg">
<g clip-path="url(#clip0_1031_285)">
<path d="M20 17.7778C20 18.3671 19.7659 18.9324 19.3491 19.3491C18.9324 19.7659 18.3671 20 17.7778 20H2.22222C1.63285 20 1.06762 19.7659 0.650874 19.3491C0.234126 18.9324 0 18.3671 0 17.7778V2.22222C0 1.63285 0.234126 1.06762 0.650874 0.650874C1.06762 0.234126 1.63285 0 2.22222 0L17.7778 0C18.3671 0 18.9324 0.234126 19.3491 0.650874C19.7659 1.06762 20 1.63285 20 2.22222V17.7778Z" fill="#2E3C8A"/>
<path d="M16.1111 4.44434L10 16.6666L3.88892 4.44434H16.1111Z" fill="white"/>
</g>
<defs>
<clipPath id="clip0_1031_285">
<rect width="20" height="20" fill="white"/>
</clipPath>
</defs>
</svg>
