<svg width="20" height="20" viewBox="0 0 20 20" fill="none" xmlns="http://www.w3.org/2000/svg">
<g clip-path="url(#clip0_1106_499)">
<path d="M9.99999 20C15.216 20 19.4444 15.7716 19.4444 10.5555C19.4444 5.33951 15.216 1.11108 9.99999 1.11108C4.78396 1.11108 0.555542 5.33951 0.555542 10.5555C0.555542 15.7716 4.78396 20 9.99999 20Z" fill="#F4900C"/>
<path d="M9.99999 18.8889C15.216 18.8889 19.4444 14.6605 19.4444 9.44444C19.4444 4.22842 15.216 0 9.99999 0C4.78396 0 0.555542 4.22842 0.555542 9.44444C0.555542 14.6605 4.78396 18.8889 9.99999 18.8889Z" fill="#FFCC4D"/>
<path d="M9.99995 17.7777C14.2955 17.7777 17.7777 14.2955 17.7777 9.99995C17.7777 5.7044 14.2955 2.22217 9.99995 2.22217C5.7044 2.22217 2.22217 5.7044 2.22217 9.99995C2.22217 14.2955 5.7044 17.7777 9.99995 17.7777Z" fill="#FFE8B6"/>
<path d="M9.99995 17.2223C14.2955 17.2223 17.7777 13.7401 17.7777 9.44453C17.7777 5.14898 14.2955 1.66675 9.99995 1.66675C5.7044 1.66675 2.22217 5.14898 2.22217 9.44453C2.22217 13.7401 5.7044 17.2223 9.99995 17.2223Z" fill="#FFAC33"/>
<path d="M5.30164 6.0312C5.30164 5.72842 5.59886 5.60731 5.59886 5.60731L9.97552 3.55176L14.3939 5.60731C14.3939 5.60731 14.6983 5.67509 14.6983 6.03342V6.38954H5.30164V6.0312Z" fill="#FFE8B6"/>
<path d="M14.405 7.13117C14.405 6.80672 14.1245 6.54395 13.7789 6.54395H6.18281C5.8367 6.54395 5.59559 6.80672 5.59559 7.13117C5.59559 7.35172 5.70892 7.54172 5.88948 7.64228V8.01228H7.06392V7.71839H8.23837V8.01228H9.41281V7.71839H10.5873V8.01228H11.7617V7.71839H12.9361V8.01228H14.1111V7.62728C14.2873 7.52283 14.405 7.34006 14.405 7.13117ZM15.2856 13.3334C15.2856 13.4502 15.2392 13.5623 15.1566 13.6449C15.0739 13.7275 14.9619 13.7739 14.845 13.7739H5.15503C5.03819 13.7739 4.92613 13.7275 4.84351 13.6449C4.76089 13.5623 4.71448 13.4502 4.71448 13.3334C4.71448 13.2165 4.76089 13.1045 4.84351 13.0219C4.92613 12.9392 5.03819 12.8928 5.15503 12.8928H14.8456C15.0884 12.8928 15.2856 13.0901 15.2856 13.3334Z" fill="#F4900C"/>
<path d="M14.6983 6.77778C14.6983 6.85572 14.6673 6.93047 14.6122 6.98559C14.5571 7.0407 14.4824 7.07166 14.4044 7.07166H5.59497C5.52015 7.06706 5.4499 7.0341 5.39855 6.97949C5.34719 6.92488 5.3186 6.85274 5.3186 6.77778C5.3186 6.70281 5.34719 6.63067 5.39855 6.57607C5.4499 6.52146 5.52015 6.48849 5.59497 6.48389L14.4044 6.48555C14.4429 6.48541 14.4811 6.49285 14.5167 6.50747C14.5523 6.52208 14.5847 6.54357 14.612 6.57072C14.6393 6.59786 14.6609 6.63012 14.6758 6.66565C14.6906 6.70118 14.6982 6.73928 14.6983 6.77778ZM6.76997 7.11889H13.2305V7.77778H6.76997V7.11889Z" fill="#F4900C"/>
<path d="M7.06331 11.5717C7.06331 11.8961 6.88775 12.1589 6.67164 12.1589H6.27997C6.06386 12.1589 5.88831 11.8961 5.88831 11.5717V7.11945C5.88831 6.795 6.06386 6.53223 6.27997 6.53223H6.67164C6.88775 6.53223 7.06331 6.795 7.06331 7.11945V11.5717ZM14.1111 11.5717C14.1111 11.8961 13.9361 12.1589 13.7194 12.1589H13.3277C13.1116 12.1589 12.9361 11.8961 12.9361 11.5717V7.11945C12.9361 6.795 13.1111 6.53223 13.3277 6.53223H13.7194C13.9355 6.53223 14.1111 6.795 14.1111 7.11945V11.5717ZM9.41275 11.5717C9.41275 11.8961 9.23719 12.1589 9.02108 12.1589H8.62942C8.41331 12.1589 8.23775 11.8961 8.23775 11.5717V7.11945C8.23775 6.795 8.41331 6.53223 8.62942 6.53223H9.02108C9.23719 6.53223 9.41275 6.795 9.41275 7.11945V11.5717ZM11.7616 11.5717C11.7616 11.8961 11.5861 12.1589 11.37 12.1589H10.9789C10.7627 12.1589 10.5872 11.8961 10.5872 11.5717V7.11945C10.5872 6.795 10.7627 6.53223 10.9789 6.53223H11.37C11.5861 6.53223 11.7616 6.795 11.7616 7.11945V11.5717Z" fill="#FFD983"/>
<path d="M14.405 11.8651C14.405 12.1895 14.1422 12.4523 13.8178 12.4523H6.1828C6.02706 12.4523 5.8777 12.3904 5.76757 12.2803C5.65745 12.1702 5.59558 12.0208 5.59558 11.8651C5.59558 11.7093 5.65745 11.56 5.76757 11.4498C5.8777 11.3397 6.02706 11.2778 6.1828 11.2778H13.8178C14.1417 11.2778 14.405 11.5406 14.405 11.8651Z" fill="#FFCC4D"/>
<path d="M14.9923 12.4522C14.9923 12.7767 14.7295 13.0394 14.405 13.0394H5.59503C5.43929 13.0394 5.28993 12.9776 5.17981 12.8674C5.06968 12.7573 5.00781 12.608 5.00781 12.4522C5.00781 12.2965 5.06968 12.1471 5.17981 12.037C5.28993 11.9269 5.43929 11.865 5.59503 11.865H14.4045C14.7289 11.865 14.9923 12.1278 14.9923 12.4522Z" fill="#FFD983"/>
<path d="M15.2856 12.8927C15.2856 13.0095 15.2392 13.1216 15.1566 13.2042C15.0739 13.2868 14.9619 13.3333 14.845 13.3333H5.15503C5.09718 13.3333 5.03989 13.3219 4.98644 13.2997C4.93299 13.2776 4.88442 13.2451 4.84351 13.2042C4.8026 13.1633 4.77015 13.1147 4.74801 13.0613C4.72587 13.0078 4.71448 12.9506 4.71448 12.8927C4.71448 12.8349 4.72587 12.7776 4.74801 12.7241C4.77015 12.6707 4.8026 12.6221 4.84351 12.5812C4.88442 12.5403 4.93299 12.5078 4.98644 12.4857C5.03989 12.4635 5.09718 12.4521 5.15503 12.4521H14.8456C15.0884 12.4521 15.2856 12.6494 15.2856 12.8927Z" fill="#FFD983"/>
<path d="M14.405 6.8255C14.405 6.50106 14.1245 6.23828 13.7789 6.23828H6.1828C5.83669 6.23828 5.59558 6.50106 5.59558 6.8255C5.59558 7.04606 5.70891 7.23606 5.88947 7.33661V7.70661H7.06391V7.41273H8.23836V7.70661H9.4128V7.41273H10.5872V7.70661H11.7617V7.41273H12.9361V7.70661H14.1111V7.32161C14.2872 7.21717 14.405 7.03439 14.405 6.8255Z" fill="#FFCC4D"/>
<path d="M5.30164 6.36836C5.30164 6.06558 5.59886 5.94447 5.59886 5.94447L9.97552 3.88892L14.3939 5.94447C14.3939 5.94447 14.6983 6.01225 14.6983 6.37058V6.53225H5.30164V6.36836Z" fill="#FFD983"/>
<path d="M9.99995 4.63501C9.99995 4.63501 6.9694 6.06334 6.66718 6.19223C6.3644 6.32056 6.46551 6.53168 6.66773 6.53168H13.3177C13.63 6.53168 13.5561 6.29334 13.3083 6.16445C13.0605 6.03612 9.99995 4.63501 9.99995 4.63501Z" fill="#FFAC33"/>
<path d="M14.6983 6.53168C14.6983 6.60963 14.6673 6.68438 14.6122 6.73949C14.5571 6.79461 14.4824 6.82557 14.4044 6.82557H5.59497C5.52015 6.82097 5.4499 6.788 5.39855 6.73339C5.34719 6.67878 5.3186 6.60664 5.3186 6.53168C5.3186 6.45672 5.34719 6.38458 5.39855 6.32997C5.4499 6.27536 5.52015 6.2424 5.59497 6.23779L14.4044 6.23946C14.4429 6.23931 14.4811 6.24676 14.5167 6.26137C14.5523 6.27599 14.5847 6.29748 14.612 6.32462C14.6393 6.35176 14.6609 6.38402 14.6758 6.41955C14.6906 6.45508 14.6982 6.49319 14.6983 6.53168Z" fill="#FFD983"/>
</g>
<defs>
<clipPath id="clip0_1106_499">
<rect width="20" height="20" fill="white"/>
</clipPath>
</defs>
</svg>
